<svg width="288" height="288" viewBox="0 0 288 288" fill="none" xmlns="http://www.w3.org/2000/svg">
<path d="M127.2 199.2L211.8 114.6L195 97.8L127.2 165.6L93 131.4L76.2 148.2L127.2 199.2ZM144 264C127.4 264 111.8 260.848 97.2 254.544C82.6 248.248 69.9 239.7 59.1 228.9C48.3 218.1 39.752 205.4 33.456 190.8C27.152 176.2 24 160.6 24 144C24 127.4 27.152 111.8 33.456 97.2C39.752 82.6 48.3 69.9 59.1 59.1C69.9 48.3 82.6 39.748 97.2 33.444C111.8 27.148 127.4 24 144 24C160.6 24 176.2 27.148 190.8 33.444C205.4 39.748 218.1 48.3 228.9 59.1C239.7 69.9 248.248 82.6 254.544 97.2C260.848 111.8 264 127.4 264 144C264 160.6 260.848 176.2 254.544 190.8C248.248 205.4 239.7 218.1 228.9 228.9C218.1 239.7 205.4 248.248 190.8 254.544C176.2 260.848 160.6 264 144 264Z" fill="white"/>
</svg>
