<svg width="24" height="24" viewBox="0 0 24 24" fill="none" xmlns="http://www.w3.org/2000/svg">
<path d="M2.21973 2.22032C2.09271 2.3473 2.01549 2.51566 2.00209 2.69477C1.98869 2.87388 2.04002 3.05185 2.14673 3.19632L2.21973 3.28032L6.25373 7.31532C4.28676 8.69394 2.88262 10.7354 2.29873 13.0653C2.25371 13.2571 2.28597 13.4589 2.38854 13.6272C2.4911 13.7954 2.65574 13.9165 2.84687 13.9643C3.038 14.0121 3.24026 13.9828 3.40995 13.8827C3.57965 13.7826 3.70313 13.6197 3.75373 13.4293C4.27263 11.3613 5.55064 9.56426 7.33373 8.39532L9.14373 10.2053C8.42073 10.9608 8.02232 11.9694 8.03386 13.015C8.04539 14.0607 8.46594 15.0602 9.20544 15.7996C9.94493 16.539 10.9446 16.9593 11.9902 16.9707C13.0359 16.982 14.0444 16.5835 14.7997 15.8603L20.7187 21.7803C20.8526 21.9145 21.0322 21.9931 21.2216 22.0002C21.411 22.0073 21.596 21.9425 21.7396 21.8187C21.8831 21.6949 21.9744 21.5214 21.9953 21.3331C22.0161 21.1447 21.9648 20.9554 21.8517 20.8033L21.7787 20.7193L15.6657 14.6053L15.6667 14.6033L8.71673 7.65732L8.71873 7.65532L7.58573 6.52532L3.27973 2.22032C3.13911 2.07987 2.94848 2.00098 2.74973 2.00098C2.55098 2.00098 2.36036 2.07987 2.21973 2.22032ZM11.9997 5.50032C10.9997 5.50032 10.0297 5.64832 9.11073 5.92532L10.3477 7.16132C12.4873 6.73767 14.7078 7.1524 16.5502 8.31975C18.3926 9.48709 19.716 11.3178 20.2467 13.4333C20.2985 13.6222 20.4222 13.7834 20.5913 13.8823C20.7604 13.9813 20.9615 14.0101 21.1516 13.9627C21.3417 13.9152 21.5056 13.7953 21.6084 13.6286C21.7113 13.4618 21.7447 13.2614 21.7017 13.0703C21.1595 10.9078 19.9103 8.98838 18.1525 7.61689C16.3948 6.2454 14.2292 5.50045 11.9997 5.50032ZM12.1947 9.01032L15.9957 12.8103C15.9466 11.8182 15.5303 10.8798 14.8278 10.1775C14.1253 9.47525 13.1868 9.05922 12.1947 9.01032Z" fill="white"/>
</svg>
