<svg width="245" height="31" viewBox="0 0 245 31" fill="none" xmlns="http://www.w3.org/2000/svg">
<path d="M13.417 10.4494C13.417 8.10051 18.3048 7.57365 22.2883 7.57365C26.2963 7.57365 29.6933 8.12246 31.1596 10.4494H44.5766C43.3546 1.22935 33.799 0.0658578 22.2883 0C10.7531 0 3.47285e-05 2.01964 3.47285e-05 10.4494C-0.0244042 17.8255 12.8549 18.3963 22.0195 18.8134C27.1761 19.0329 31.1596 19.2305 31.1596 20.5257C31.1596 22.8088 26.2719 23.4015 22.2883 23.4015C18.2803 23.4015 14.8833 22.8088 13.417 20.5257H3.47285e-05C1.22198 29.6799 10.7776 30.9312 22.2883 30.9532C33.8235 30.9532 44.5766 28.9555 44.5766 20.5257C44.601 13.1277 31.7217 12.5569 22.5571 12.1398C17.4005 11.9203 13.417 11.7446 13.417 10.4494Z" fill="white"/>
<path d="M47.998 30.2726H86.4404V22.699H60.804V18.9231H86.4404V12.0959H60.804V8.32004H86.4404V0.768341H47.998V30.2726Z" fill="white"/>
<path d="M93.2589 0.746388V30.2507H106.065V23.0502H117.502L123.685 30.2507H137.322L130.162 21.9746C132.312 21.0745 134.047 19.7134 135.343 17.9353C136.662 16.1352 137.322 14.1155 137.322 11.8983C137.42 5.79549 131.677 0.680531 124.907 0.746388H93.2589ZM121.681 9.37376C123.245 9.37376 124.492 10.4933 124.492 11.8983C124.492 12.5788 124.223 13.1716 123.661 13.6765C123.123 14.1594 122.463 14.4009 121.681 14.4009H106.065V9.37376H121.681Z" fill="white"/>
<path d="M141.306 0.724436V30.2287H154.112V0.724436H141.306Z" fill="white"/>
<path d="M180.335 9.3079L184.831 18.0231H175.813L180.335 9.3079ZM155.089 30.2726H169.508L172.099 25.2235H188.546L191.137 30.2726H205.556L187.935 0.768341H172.71L155.089 30.2726Z" fill="white"/>
<path d="M206.558 0.724436V30.2287H245V20.8769H219.364V0.724436H206.558Z" fill="white"/>
<path d="M13.4143 31L31.2101 10.5187H44.557L59.2942 31H13.4143Z" fill="#1045FF"/>
<path d="M13.417 10.4494C13.417 8.10051 18.3048 7.57365 22.2883 7.57365C26.2963 7.57365 29.6933 8.12246 31.1596 10.4494H44.5766C43.3546 1.22935 33.799 0.0658578 22.2883 0C10.7531 0 3.47285e-05 2.01964 3.47285e-05 10.4494C-0.0244042 17.8255 12.8549 18.3963 22.0195 18.8134C27.1761 19.0329 31.1596 19.2305 31.1596 20.5257C31.1596 22.8088 26.2719 23.4015 22.2883 23.4015C18.2803 23.4015 14.8833 22.8088 13.417 20.5257H3.47285e-05C1.22198 29.6799 10.7776 30.9312 22.2883 30.9532C33.8235 30.9532 44.5766 28.9555 44.5766 20.5257C44.601 13.1277 31.7217 12.5569 22.5571 12.1398C17.4005 11.9203 13.417 11.7446 13.417 10.4494Z" fill="white"/>
</svg>
